<svg xmlns="http://www.w3.org/2000/svg" viewBox="0 0 359.08 81.08"><defs><style>.cls-1{fill:currentColor;}.cls-2{fill:#333132;}.cls-3{fill:#f1f2f2;}.cls-4{fill:#ef372f;}.cls-5{fill:#e21a58;}.cls-6{fill:#eb0d8c;}.cls-7{fill:#922a8e;}.cls-8{fill:#2e3690;}.cls-9{fill:#0d73bb;}.cls-10{fill:#2bace2;}.cls-11{fill:#00a99d;}.cls-12{fill:#06a64f;}.cls-13{fill:#88c541;}.cls-14{fill:#fcee23;}.cls-15{fill:#f89521;}</style></defs><g id="Layer_1" data-name="Layer 1"><path class="cls-1" d="M103.84,56a19.48,19.48,0,0,1-7-1.18,15,15,0,0,1-5.31-3.38,14.7,14.7,0,0,1-3.36-5.23A18.5,18.5,0,0,1,87,39.49,18.44,18.44,0,0,1,89,30.94,14.41,14.41,0,0,1,94.55,25a16.84,16.84,0,0,1,8.71-2.14,23.91,23.91,0,0,1,3,.2,25.94,25.94,0,0,1,2.89.54,23.83,23.83,0,0,1,2.58.77,18.88,18.88,0,0,1,2.13.92l-.56,6.84A22.11,22.11,0,0,0,110,30.41a17,17,0,0,0-3.09-1,13.61,13.61,0,0,0-2.83-.31,9.65,9.65,0,0,0-4.84,1.2,8.34,8.34,0,0,0-3.34,3.51,11.87,11.87,0,0,0-1.22,5.64,12.9,12.9,0,0,0,.62,4,9.71,9.71,0,0,0,1.89,3.33,8.74,8.74,0,0,0,3.16,2.28,11.11,11.11,0,0,0,4.45.83,15.08,15.08,0,0,0,2.11-.15,13.48,13.48,0,0,0,2.13-.45,12.86,12.86,0,0,0,2.15-.86,16.63,16.63,0,0,0,2.14-1.33l.4,6.74a12.91,12.91,0,0,1-2.12.94,17.91,17.91,0,0,1-2.45.66,24.48,24.48,0,0,1-2.63.38C105.63,56,104.73,56,103.84,56Z"/><path class="cls-1" d="M118.62,55.39V22.64l6.68-.58V36.2h.56a10.55,10.55,0,0,1,1.63-1.81A8,8,0,0,1,129.71,33a7.39,7.39,0,0,1,2.85-.53,6.33,6.33,0,0,1,5.07,2q1.73,2,1.72,5.91v15H132.7V42.52a5.51,5.51,0,0,0-.65-3,2.57,2.57,0,0,0-2.33-1A4,4,0,0,0,128,39a5.35,5.35,0,0,0-1.47,1,8.35,8.35,0,0,0-1.19,1.46V55.39Z"/><path class="cls-1" d="M144.47,55.39V33.1l5.6-.34.29,4.11h.56a9,9,0,0,1,1.92-2.76A5.73,5.73,0,0,1,155,32.83a7.3,7.3,0,0,1,2.1-.34,8.38,8.38,0,0,1,1.15.09,5.08,5.08,0,0,1,1.19.32l-.58,6.47-1.56-.11c-.46,0-.95,0-1.48,0a6.39,6.39,0,0,0-1.28.13,3.66,3.66,0,0,0-1.28.54A4.68,4.68,0,0,0,152.08,41a7,7,0,0,0-.93,1.86V55.39Z"/><path class="cls-1" d="M173,56a13.31,13.31,0,0,1-5.28-1A10.19,10.19,0,0,1,164,52.42a10.79,10.79,0,0,1-2.19-3.79,13.79,13.79,0,0,1-.73-4.45,12.87,12.87,0,0,1,1.36-6,10,10,0,0,1,4-4.18,12.62,12.62,0,0,1,6.45-1.53,14,14,0,0,1,5.17.89,10.09,10.09,0,0,1,3.71,2.48,10.4,10.4,0,0,1,2.22,3.73,14,14,0,0,1,.73,4.59,13.07,13.07,0,0,1-1.36,6,10.21,10.21,0,0,1-4,4.22A12.25,12.25,0,0,1,173,56Zm0-5.45a4.2,4.2,0,0,0,2.76-.9,5.59,5.59,0,0,0,1.63-2.36,8.82,8.82,0,0,0,.54-3.1,8.21,8.21,0,0,0-.62-3.37,4.88,4.88,0,0,0-1.74-2.13,5,5,0,0,0-5.38.09A5.07,5.07,0,0,0,168.45,41a8.93,8.93,0,0,0,0,6.28,5.53,5.53,0,0,0,1.69,2.36A4.38,4.38,0,0,0,173,50.54Z"/><path class="cls-1" d="M189,55.39V33.1l5.61-.34.29,3.87h.56a12.06,12.06,0,0,1,1.79-2,7.92,7.92,0,0,1,2.37-1.53,7.69,7.69,0,0,1,3.08-.59,5.69,5.69,0,0,1,4,1.29,6.6,6.6,0,0,1,1.91,3.7l.45.06c.09.43.16.89.21,1.35a14.11,14.11,0,0,1,.08,1.49v15h-6.68V42.52a5.74,5.74,0,0,0-.61-3,2.36,2.36,0,0,0-2.18-1,3.53,3.53,0,0,0-1.68.4A5.53,5.53,0,0,0,196.76,40a9.25,9.25,0,0,0-1.12,1.44V55.39Zm27.21,0V42.52a5.85,5.85,0,0,0-.6-3,2.37,2.37,0,0,0-2.19-1,3.64,3.64,0,0,0-1.68.39,5.31,5.31,0,0,0-1.39,1,8.49,8.49,0,0,0-1.13,1.46l-1-4.8h.58a13.36,13.36,0,0,1,1.88-2.05,8.44,8.44,0,0,1,2.47-1.54,8,8,0,0,1,3.14-.59,6.07,6.07,0,0,1,5,2,9.15,9.15,0,0,1,1.64,5.89v15Z"/><path class="cls-1" d="M233.19,55.93a6.67,6.67,0,0,1-3.35-.81,5.57,5.57,0,0,1-2.23-2.28,7,7,0,0,1-.81-3.44,6.93,6.93,0,0,1,.67-3.2,6.26,6.26,0,0,1,1.73-2.09,7.89,7.89,0,0,1,2.33-1.23,15.83,15.83,0,0,1,2.46-.62l6.21-1a3,3,0,0,0-.47-2,2.76,2.76,0,0,0-1.56-1,8.7,8.7,0,0,0-2.43-.29,12.07,12.07,0,0,0-1.64.12,16.36,16.36,0,0,0-1.88.37,21,21,0,0,0-2,.61c-.69.25-1.38.54-2.08.86l-.31-5.67c.55-.21,1.18-.42,1.9-.63s1.49-.4,2.33-.58a23.38,23.38,0,0,1,2.65-.4c.92-.09,1.87-.13,2.86-.13a12.89,12.89,0,0,1,4.78.8,6.15,6.15,0,0,1,3,2.55,8.73,8.73,0,0,1,1,4.55v15h-5.74l-.42-3h-.49a9.1,9.1,0,0,1-1.53,1.68,7.46,7.46,0,0,1-5,1.85Zm2.66-5.14a3.51,3.51,0,0,0,1.55-.38,5.49,5.49,0,0,0,1.45-1.06A6.75,6.75,0,0,0,240,47.73V44.31a3.47,3.47,0,0,1-.67.37,9.45,9.45,0,0,1-1.21.36l-2.23.48a3.72,3.72,0,0,0-1.38.53,2.75,2.75,0,0,0-.89,1,2.84,2.84,0,0,0-.33,1.4,2.06,2.06,0,0,0,.78,1.82A2.89,2.89,0,0,0,235.85,50.79Z"/><path class="cls-1" d="M249.56,38.12v-5h16.85v5H249.56ZM261,56a10.74,10.74,0,0,1-4.23-.75,5.36,5.36,0,0,1-2.68-2.4,8.83,8.83,0,0,1-.93-4.35V25.86l6.57-1.18V46.39a5.34,5.34,0,0,0,.75,3.09,2.77,2.77,0,0,0,2.44,1.06,5.49,5.49,0,0,0,1.57-.25,5.68,5.68,0,0,0,1.63-.82l.38,5.41a5.9,5.9,0,0,1-1.48.6,14.5,14.5,0,0,1-1.94.38A16.25,16.25,0,0,1,261,56Z"/><path class="cls-1" d="M280.88,56a13.31,13.31,0,0,1-5.28-1,10.19,10.19,0,0,1-3.71-2.61,10.79,10.79,0,0,1-2.19-3.79,13.79,13.79,0,0,1-.73-4.45,13,13,0,0,1,1.35-6,10.14,10.14,0,0,1,4-4.18,12.61,12.61,0,0,1,6.44-1.53,14,14,0,0,1,5.18.89,10,10,0,0,1,3.7,2.48,10.43,10.43,0,0,1,2.23,3.73,14,14,0,0,1,.73,4.59,13.07,13.07,0,0,1-1.36,6,10.21,10.21,0,0,1-4,4.22A12.25,12.25,0,0,1,280.88,56Zm0-5.45a4.2,4.2,0,0,0,2.76-.9,5.59,5.59,0,0,0,1.63-2.36,8.82,8.82,0,0,0,.54-3.1,8.38,8.38,0,0,0-.62-3.37,4.88,4.88,0,0,0-1.74-2.13,5,5,0,0,0-5.38.09A5.07,5.07,0,0,0,276.36,41a8.93,8.93,0,0,0,0,6.28,5.53,5.53,0,0,0,1.69,2.36A4.38,4.38,0,0,0,280.86,50.54Z"/><path class="cls-1" d="M296.87,55.39V33.1l5.61-.34.29,3.89h.56a10.9,10.9,0,0,1,1.83-2,8.41,8.41,0,0,1,2.47-1.53,8.16,8.16,0,0,1,3.18-.59,6.36,6.36,0,0,1,5.07,2q1.72,2,1.72,5.91v15h-6.66V42.52a5.51,5.51,0,0,0-.64-3,2.58,2.58,0,0,0-2.33-1,4,4,0,0,0-1.76.39,5.56,5.56,0,0,0-1.48,1,8.77,8.77,0,0,0-1.18,1.46V55.39Z"/><path class="cls-1" d="M333.88,56a14.36,14.36,0,0,1-7-1.52,9.37,9.37,0,0,1-4-4.18,13.63,13.63,0,0,1-1.3-6.09,14.43,14.43,0,0,1,1.22-6.07A9.25,9.25,0,0,1,326.37,34a11.19,11.19,0,0,1,5.95-1.47,11.51,11.51,0,0,1,5.2,1.07,7.35,7.35,0,0,1,3.33,3.26A11.64,11.64,0,0,1,342,42.37c0,.59,0,1.13,0,1.59a12.39,12.39,0,0,1-.16,1.38l-5.71-2.17c0-.21,0-.41.06-.61s0-.4,0-.59a5.34,5.34,0,0,0-1.06-3.52,3.38,3.38,0,0,0-2.75-1.29,3.6,3.6,0,0,0-2.24.75A5,5,0,0,0,328.59,40a8.31,8.31,0,0,0-.56,3.19v1.1a7.35,7.35,0,0,0,.71,3.34,4.67,4.67,0,0,0,2.17,2.13,8.48,8.48,0,0,0,3.78.74,13.78,13.78,0,0,0,2.06-.18,17.72,17.72,0,0,0,2.39-.53,12,12,0,0,0,2.27-.88l.23,5.63a14.35,14.35,0,0,1-2,.73,19.64,19.64,0,0,1-2.6.51A23.6,23.6,0,0,1,333.88,56ZM324.1,45.34V41.79l13.83-.29,3.88,1.07v2.77Z"/></g><g id="Layer_3" data-name="Layer 3"><path class="cls-2" d="M61.65,23.4a6.12,6.12,0,0,0-10.6-6.12,6.52,6.52,0,0,0-.43.93h0l0,.05a6.36,6.36,0,0,0-.27,1L46.54,33.62a2,2,0,0,0,3.37,2l11-11.11A5.87,5.87,0,0,0,61.65,23.4Z"/><path class="cls-3" d="M68.2,34.37a6.12,6.12,0,1,0-6.12-10.6,5.42,5.42,0,0,0-.83.59h0l0,0a7.68,7.68,0,0,0-.75.76L50,35.66A2,2,0,0,0,52,39L67,34.9A6.57,6.57,0,0,0,68.2,34.37Z"/><path class="cls-3" d="M68.39,47.14a6.12,6.12,0,1,0,0-12.24,6.65,6.65,0,0,0-1,.09h-.06a7.24,7.24,0,0,0-1,.28L52,39.16a2,2,0,0,0,0,3.89l15.11,4A6.16,6.16,0,0,0,68.39,47.14Z"/><path class="cls-2" d="M62.17,58.3a6.12,6.12,0,1,0,6.12-10.6,5.58,5.58,0,0,0-.93-.43h0a5.52,5.52,0,0,0-1-.28L52,43.18a2,2,0,0,0-2,3.37l11.11,11A6.44,6.44,0,0,0,62.17,58.3Z"/><path class="cls-3" d="M51.2,64.85a6.12,6.12,0,1,0,10.6-6.12,5.51,5.51,0,0,0-.59-.84h0l0,0a6.06,6.06,0,0,0-.76-.76L49.91,46.64a2,2,0,0,0-3.37,2l4.13,15.06A6.36,6.36,0,0,0,51.2,64.85Z"/><path class="cls-2" d="M38.43,65a6.12,6.12,0,0,0,12.24,0,6.79,6.79,0,0,0-.09-1h0V64a6,6,0,0,0-.28-1L46.41,48.62a2,2,0,0,0-3.89,0l-4,15.11A6.26,6.26,0,0,0,38.43,65Z"/><path class="cls-3" d="M27.28,58.81a6.12,6.12,0,1,0,10.59,6.12A5.88,5.88,0,0,0,38.3,64h0V64a5.42,5.42,0,0,0,.28-1l3.79-14.33a2,2,0,0,0-3.37-2l-11,11.12A5.79,5.79,0,0,0,27.28,58.81Z"/><path class="cls-3" d="M20.73,47.85a6.12,6.12,0,0,0,6.11,10.6,7.4,7.4,0,0,0,.84-.59h0l0,0a6.06,6.06,0,0,0,.76-.76L38.93,46.55a2,2,0,0,0-2-3.37L21.92,47.32A5.48,5.48,0,0,0,20.73,47.85Z"/><path class="cls-2" d="M20.54,35.08a6.12,6.12,0,1,0,0,12.23,5.66,5.66,0,0,0,1-.09h0l.06,0a6,6,0,0,0,1-.28L37,43.06a2,2,0,0,0,0-3.9L21.84,35.21A6.23,6.23,0,0,0,20.54,35.08Z"/><path class="cls-3" d="M26.76,23.92a6.12,6.12,0,1,0-6.12,10.6,7,7,0,0,0,.92.43h0l.06,0a6.25,6.25,0,0,0,1,.27L37,39a2,2,0,0,0,2-3.38l-11.11-11A6.24,6.24,0,0,0,26.76,23.92Z"/><path class="cls-2" d="M37.72,17.37a6.12,6.12,0,1,0-10,7h0l0,0a6,6,0,0,0,.76.75L39,35.57a2,2,0,0,0,3.37-2l-4.14-15A5.78,5.78,0,0,0,37.72,17.37Z"/><path class="cls-3" d="M50.5,17.18a6.12,6.12,0,1,0-12.24,0,5.77,5.77,0,0,0,.09,1h0l0,.05a6.14,6.14,0,0,0,.28,1l3.88,14.3a2,2,0,0,0,3.89,0l4-15.11A6.16,6.16,0,0,0,50.5,17.18Z"/><path class="cls-4" d="M39.62,18.48c-1.72-6.4,8-9,9.69-2.6S41.34,24.89,39.62,18.48Z"/><path class="cls-5" d="M29,23.93c-4.69-4.69,2.4-11.78,7.1-7.09S33.65,28.64,29,23.93Z"/><path class="cls-6" d="M22.45,34C16,32.27,18.63,22.58,25,24.3S28.86,35.71,22.45,34Z"/><path class="cls-7" d="M21.83,46c-6.4,1.72-9-8-2.59-9.68S28.24,44.24,21.83,46Z"/><path class="cls-8" d="M27.29,56.62c-4.69,4.69-11.79-2.4-7.09-7.09S32,51.92,27.29,56.62Z"/><path class="cls-9" d="M37.35,63.13c-1.72,6.4-11.41,3.82-9.69-2.6S39.07,56.71,37.35,63.13Z"/><path class="cls-10" d="M49.31,63.74c1.72,6.4-8,9-9.69,2.59S47.59,57.32,49.31,63.74Z"/><path class="cls-11" d="M60,58.28c4.69,4.69-2.4,11.79-7.1,7.09S55.28,53.59,60,58.28Z"/><path class="cls-12" d="M66.49,48.23c6.4,1.71,3.81,11.4-2.6,9.68S60.07,46.51,66.49,48.23Z"/><path class="cls-13" d="M67.09,36.26c6.41-1.71,9,8,2.6,9.69S60.69,38,67.09,36.26Z"/><path class="cls-14" d="M61.64,25.6c4.69-4.69,11.79,2.4,7.09,7.09S56.93,30.3,61.64,25.6Z"/><path class="cls-15" d="M51.58,19.09c1.72-6.41,11.41-3.82,9.69,2.59S49.86,25.5,51.58,19.09Z"/></g></svg>